<?xml version="1.0" encoding="UTF-8"?>
<svg version="1.1" xmlns="http://www.w3.org/2000/svg" width="2000" height="800">
<path d="M0 0 C3.5645319 0.05297868 7.128433 0.01824409 10.69313443 -0.005 C17.65584668 -0.03685065 24.61581375 0.01054403 31.57810769 0.08541479 C39.69678738 0.16960635 47.81492655 0.1732351 55.93397018 0.17374382 C70.42319468 0.1772977 84.91116571 0.25198037 99.39989102 0.36775696 C113.44040852 0.47987831 127.48001522 0.54355192 141.52098477 0.55232728 C142.38657959 0.55287571 143.25217441 0.55342414 144.14399938 0.55398919 C145.00814069 0.55452611 145.87228201 0.55506302 146.76260942 0.5556162 C148.5027431 0.5567125 150.24287676 0.55782963 151.98301041 0.55896771 C152.84130754 0.55952425 153.69960468 0.5600808 154.58391081 0.5606542 C167.99503774 0.57137642 181.40602528 0.62672671 194.8170099 0.68644744 C199.66712985 0.70747028 204.51721677 0.72184399 209.36737237 0.73133149 C217.0585475 0.74650932 224.74909193 0.78097034 232.43994317 0.85523238 C235.95121979 0.88878093 239.46188149 0.9132484 242.97333348 0.91183197 C246.78621049 0.91561639 250.59697918 0.95633013 254.4094888 1.00647461 C255.51017644 0.99922936 256.61086408 0.99198411 257.74490589 0.9845193 C265.40422826 1.14194558 270.55485359 3.14787984 276.63451016 7.8289386 C280.70791999 12.10105135 281.42624703 16.30289344 281.72044766 22.0320636 C281.43529861 31.3123689 276.49844907 37.03082133 270.63451016 43.8289386 C269.6329086 45.11671204 269.6329086 45.11671204 268.61107266 46.4305011 C266.83184146 48.58948916 265.11976907 50.21390946 262.94701016 51.9539386 C259.73257275 54.69653199 257.1251053 57.57445482 254.50951016 60.8914386 C249.23647869 67.5332535 243.24914277 73.38405391 237.19115078 79.30452454 C234.988113 81.46195364 232.81137794 83.64513813 230.63451016 85.8289386 C229.65551057 86.80827232 228.67633549 87.78743062 227.69701016 88.7664386 C227.19427578 89.26917298 226.69154141 89.77190735 226.17357266 90.2898761 C208.63451016 107.8289386 208.63451016 107.8289386 207.00951016 109.41878235 C204.02584583 112.35582693 201.16400733 115.33008183 198.44701016 118.5164386 C192.31184992 125.61885383 185.61370986 132.39091066 178.44701016 138.4539386 C174.61932188 141.71456196 171.37996814 145.38052758 168.05638516 149.14534485 C161.95974327 155.9008174 155.45791736 162.23457733 148.54076016 168.14534485 C145.07503544 171.20626156 141.87331285 174.53195383 138.63451016 177.8289386 C137.47048672 178.99102845 137.47048672 178.99102845 136.28294766 180.17659485 C134.37408961 182.08826832 132.4782227 184.00895751 130.59154141 185.94221985 C129.54340983 187.00867083 128.4952323 188.07507665 127.44701016 189.1414386 C126.91398282 189.69122376 126.38095547 190.24100892 125.83177578 190.80745423 C124.4702606 192.18609539 123.05610514 193.51233587 121.63451016 194.8289386 C120.97451016 194.8289386 120.31451016 194.8289386 119.63451016 194.8289386 C119.4041708 195.38524964 119.17383145 195.94156067 118.93651211 196.51472962 C117.27944175 199.46004556 115.20673729 201.48065921 112.80247891 203.85628235 C112.32885418 204.32707718 111.85522946 204.79787201 111.36725247 205.28293335 C109.85682261 206.7822175 108.33959867 208.2744044 106.82201016 209.7664386 C105.81308498 210.7653215 104.80461671 211.76466612 103.79661953 212.76448548 C101.93052612 214.61431022 100.06136128 216.46081181 98.18993008 218.30525696 C94.84813758 221.60554444 91.52037928 224.91697187 88.24779141 228.28596985 C87.10890469 229.45192688 87.10890469 229.45192688 85.94701016 230.6414386 C84.79652188 231.82673157 84.79652188 231.82673157 83.62279141 233.03596985 C81.63451016 234.8289386 81.63451016 234.8289386 79.63451016 234.8289386 C79.28839688 235.68165345 79.28839688 235.68165345 78.93529141 236.55159485 C77.30329811 239.40880835 75.30771949 241.11613233 72.82201016 243.2664386 C67.33786885 248.03706077 62.28797793 253.17553636 57.18529141 258.34846985 C55.63780287 259.91067748 54.08937312 261.4719453 52.54051602 263.03279603 C51.47104148 264.11242951 50.40335377 265.19383571 49.33739102 266.27693665 C47.79133422 267.84712471 46.23901788 269.41087549 44.68529141 270.97346985 C43.76401455 271.90522034 42.8427377 272.83697083 41.89354336 273.79695618 C39.63451016 275.8289386 39.63451016 275.8289386 37.63451016 275.8289386 C37.63451016 276.4889386 37.63451016 277.1489386 37.63451016 277.8289386 C36.93326016 278.3858136 36.23201016 278.9426886 35.50951016 279.5164386 C33.21238275 281.36412804 31.65337737 282.9036584 29.82201016 285.1414386 C27.05897966 288.46272847 24.02104637 291.19898489 20.72826016 293.9851886 C17.7523136 296.60579826 15.03227825 299.45518605 12.29857266 302.32503235 C10.63451016 303.8289386 10.63451016 303.8289386 8.63451016 303.8289386 C8.27196133 304.67826966 8.27196133 304.67826966 7.90208828 305.54475892 C6.38355199 308.281166 4.56299135 310.15963199 2.35326016 312.3758136 C1.51150235 313.22014954 0.66974453 314.06448548 -0.19752109 314.93440735 C-1.07795078 315.80710267 -1.95838047 316.67979798 -2.86548984 317.5789386 C-3.74591953 318.46710267 -4.62634922 319.35526673 -5.53345859 320.27034485 C-6.3752164 321.10952454 -7.21697422 321.94870423 -8.08423984 322.8133136 C-8.85703281 323.58385071 -9.62982578 324.35438782 -10.42603672 325.14827454 C-12.36548984 326.8289386 -12.36548984 326.8289386 -14.36548984 326.8289386 C-14.36548984 327.4889386 -14.36548984 328.1489386 -14.36548984 328.8289386 C-15.16986484 329.3239386 -15.97423984 329.8189386 -16.80298984 330.3289386 C-20.77685927 332.85860086 -23.5246059 336.2522339 -26.60767734 339.7742511 C-34.05696117 348.15539711 -42.16826895 356.13270829 -50.74048984 363.35628235 C-53.02360164 365.42535243 -54.91049762 367.7628543 -56.86548984 370.13753235 C-58.95092837 372.48908153 -61.29977048 374.43408022 -63.71705234 376.43440735 C-65.14260773 377.64038668 -66.48265005 378.94609882 -67.80298984 380.2664386 C-69.94638688 382.40983564 -72.12643035 384.36284627 -74.42798984 386.3289386 C-77.46195802 388.94009389 -79.88544262 391.68118636 -82.36548984 394.8289386 C-83.02548984 394.8289386 -83.68548984 394.8289386 -84.36548984 394.8289386 C-84.56916172 395.36905579 -84.77283359 395.90917298 -84.98267734 396.46565735 C-86.92360122 399.78277302 -89.65522831 402.10576092 -92.49048984 404.6414386 C-93.07652988 405.17478821 -93.66256992 405.70813782 -94.26636875 406.25764954 C-97.38153885 409.08337594 -100.53954104 411.85057083 -103.74048984 414.5789386 C-107.01216356 417.40571946 -109.78559813 420.5004431 -112.58814609 423.78596985 C-116.7997086 428.62695269 -121.19911264 433.09402632 -126.42798984 436.8289386 C-129.88025613 439.33000243 -132.43767895 442.07243702 -135.16627109 445.3289386 C-138.21064612 448.78968464 -141.43224781 452.05771721 -144.67798984 455.3289386 C-145.30141269 455.96509095 -145.92483554 456.60124329 -146.56715 457.25667298 C-147.15673496 457.84770813 -147.74631992 458.43874329 -148.35377109 459.0476886 C-148.88526767 459.58329407 -149.41676425 460.11889954 -149.96436679 460.67073548 C-151.36548984 461.8289386 -151.36548984 461.8289386 -153.36548984 461.8289386 C-153.36548984 462.4889386 -153.36548984 463.1489386 -153.36548984 463.8289386 C-155.35238715 465.18171975 -157.35294202 466.51462166 -159.36548984 467.8289386 C-159.69548984 468.4889386 -160.02548984 469.1489386 -160.36548984 469.8289386 C-161.02548984 469.8289386 -161.68548984 469.8289386 -162.36548984 469.8289386 C-162.36548984 470.4889386 -162.36548984 471.1489386 -162.36548984 471.8289386 C-163.02548984 471.8289386 -163.68548984 471.8289386 -164.36548984 471.8289386 C-164.5730289 472.36132142 -164.78056797 472.89370423 -164.99439609 473.44221985 C-166.9204166 476.79492222 -169.56849921 479.32556465 -172.30298984 482.0164386 C-172.88492099 482.59522767 -173.46685215 483.17401673 -174.06641757 483.77034485 C-177.53666804 487.17579713 -181.10089199 490.32193315 -184.92798984 493.3289386 C-190.97062536 498.11011883 -195.95037944 503.69199234 -201.08179843 509.40608704 C-205.32771669 514.11228933 -209.77872888 518.19536315 -214.74048984 522.1414386 C-219.39918392 525.8887876 -223.33014113 529.91108226 -227.24830234 534.4148761 C-240.88530091 549.96407374 -240.88530091 549.96407374 -249.36548984 553.8289386 C-249.36548984 554.4889386 -249.36548984 555.1489386 -249.36548984 555.8289386 C-250.9862765 557.54025569 -252.66281882 559.19907145 -254.36548984 560.8289386 C-255.22787265 561.70292298 -256.09025547 562.57690735 -256.97877109 563.4773761 C-262.81467829 569.37240248 -268.74770464 575.04255508 -275.16627109 580.3055011 C-278.18199253 582.80634327 -280.85353412 585.31842679 -283.36548984 588.3289386 C-283.93278718 588.96147899 -284.50008451 589.59401938 -285.08457267 590.24572766 C-286.30571603 591.62871119 -287.51698608 593.02298507 -288.65234017 594.4772222 C-293.99163916 601.22664624 -299.45615651 606.72456285 -308.2261256 608.13299096 C-315.44036653 608.80531922 -322.65125564 608.68608542 -329.88819492 608.58943665 C-332.66246486 608.59580458 -335.43644008 608.62317662 -338.21058261 608.64952576 C-344.93236261 608.70079904 -351.65192537 608.67847872 -358.37365184 608.63071402 C-366.21263098 608.57796867 -374.05086942 608.60065894 -381.88991793 608.62638388 C-395.87974483 608.66986977 -409.86867918 608.64761934 -423.85840976 608.58699524 C-437.41402166 608.52832748 -450.96872449 608.51317045 -464.52442539 608.54793274 C-465.77801268 608.55113657 -465.77801268 608.55113657 -467.05692498 608.55440512 C-468.30841168 608.55762222 -468.30841168 608.55762222 -469.58518094 608.56090432 C-471.26528872 608.56522067 -472.94539653 608.5695241 -474.62550437 608.57381451 C-475.86855274 608.57700403 -475.86855274 608.57700403 -477.1367132 608.58025799 C-490.08647862 608.6118057 -503.03625966 608.60531972 -515.98604873 608.59427559 C-520.66864108 608.59067792 -525.3511974 608.59231569 -530.03378759 608.59771021 C-537.45910655 608.60601151 -544.88400531 608.59770738 -552.30922494 608.55580004 C-555.6990895 608.53693945 -559.08809876 608.52829728 -562.47806728 608.53600609 C-566.15928542 608.54278438 -569.83905161 608.51857638 -573.52010715 608.48645508 C-575.11277439 608.4998133 -575.11277439 608.4998133 -576.73761672 608.51344138 C-585.47386484 608.38100615 -592.07270489 605.57648653 -598.92798984 600.2039386 C-602.01219521 596.78677924 -602.37611839 593.17830844 -602.52173984 588.6883136 C-601.80174032 575.51232236 -593.09489191 566.46216263 -584.52564609 557.1726886 C-582.55146807 555.0307233 -580.63916748 552.85019112 -578.74048984 550.6414386 C-576.53363172 548.10406026 -574.26181745 545.68799001 -571.86548984 543.3289386 C-568.87996786 540.38965258 -566.12570255 537.31163976 -563.38892734 534.1414386 C-560.87815071 531.27197959 -558.31510185 528.45359435 -555.74048984 525.6414386 C-555.28512851 525.14232972 -554.82976718 524.64322083 -554.36060703 524.12898743 C-551.43986732 520.94508463 -548.43859096 517.86545519 -545.36548984 514.8289386 C-534.87452916 504.54402645 -534.87452916 504.54402645 -525.03345859 493.6492511 C-522.17776577 490.53273388 -518.94030584 487.83536535 -515.77173984 485.04378235 C-513.01619533 482.50742889 -510.62892282 479.79598005 -508.21705234 476.9383136 C-504.48896637 472.69112705 -500.38864028 468.79387625 -496.36548984 464.8289386 C-495.58173984 464.0451886 -494.79798984 463.2614386 -493.99048984 462.4539386 C-492.01960833 460.48305709 -490.04278995 458.51905873 -488.06080234 456.55940735 C-480.55336311 449.18491706 -480.55336311 449.18491706 -473.49048984 441.3914386 C-470.80910176 438.23217938 -467.88951091 435.61799452 -464.73658359 432.9383136 C-458.11368881 427.04644674 -451.67023823 420.70126614 -445.99048984 413.8914386 C-442.17420801 409.38897802 -437.77373436 405.53106528 -433.42579257 401.55525696 C-427.68198898 396.24810437 -422.35496038 390.60838535 -417.11353672 384.80745423 C-416.51992343 384.1571222 -415.92631015 383.50679017 -415.31470859 382.8367511 C-414.79223545 382.25554505 -414.2697623 381.67433899 -413.73145664 381.07552063 C-412.36548984 379.8289386 -412.36548984 379.8289386 -410.36548984 379.8289386 C-410.36548984 379.1689386 -410.36548984 378.5089386 -410.36548984 377.8289386 C-408.96705234 376.4539386 -408.96705234 376.4539386 -406.99048984 374.8289386 C-398.09746769 367.72123085 -398.09746769 367.72123085 -391.36548984 358.8289386 C-390.70548984 358.8289386 -390.04548984 358.8289386 -389.36548984 358.8289386 C-389.09736484 358.1895636 -388.82923984 357.5501886 -388.55298984 356.8914386 C-387.36548984 354.8289386 -387.36548984 354.8289386 -384.36548984 353.8289386 C-384.03548984 352.8389386 -383.70548984 351.8489386 -383.36548984 350.8289386 C-381.99244297 349.47932923 -381.99244297 349.47932923 -380.14673984 347.9851886 C-376.2254559 344.6580386 -372.579777 341.13117861 -368.95923984 337.4851886 C-368.38609043 336.90873597 -367.81294101 336.33228333 -367.22242343 335.73836243 C-365.43480698 333.93716227 -363.64971965 332.13349324 -361.86548984 330.3289386 C-348.44815116 316.75875798 -348.44815116 316.75875798 -342.02955234 311.30159485 C-339.3401943 308.92157612 -336.99177766 306.26546748 -334.61548984 303.5789386 C-329.70066653 298.13451092 -324.5041654 293.15472401 -319.05298984 288.25471985 C-313.77591423 283.49154551 -308.95676681 278.49826631 -304.43189609 273.0164386 C-302.64385489 271.12361616 -300.83711679 269.485936 -298.86158359 267.7976886 C-293.23738887 262.94051779 -288.08068646 257.61499845 -282.86548984 252.3289386 C-277.10083841 246.48595804 -271.36235857 240.68634799 -265.11695468 235.34895813 C-262.43175857 233.01859418 -259.93867796 230.53416932 -257.42798984 228.0164386 C-256.94781406 227.54013001 -256.46763828 227.06382142 -255.97291172 226.57307923 C-253.33738789 223.95104392 -253.33738789 223.95104392 -251.36548984 220.8289386 C-250.70548984 220.8289386 -250.04548984 220.8289386 -249.36548984 220.8289386 C-249.0075333 219.9643805 -249.0075333 219.9643805 -248.64234531 219.08235657 C-247.09932459 216.35920528 -245.31313665 214.80876933 -242.93580234 212.7742511 C-237.11380444 207.66352855 -231.67631539 202.21878966 -226.24048984 196.7039386 C-224.36597316 194.80237633 -222.48787364 192.90460028 -220.60767734 191.0086261 C-219.79153965 190.18088685 -218.97540195 189.35314759 -218.13453281 188.50032532 C-215.97950551 186.4212997 -213.80320826 184.45527626 -211.5383414 182.50179017 C-207.28514325 178.8112831 -203.31393149 174.8879062 -199.35767734 170.8836261 C-198.62856143 170.15072358 -197.89944553 169.41782105 -197.1482352 168.66270936 C-194.84318357 166.34555723 -192.54142805 164.02517495 -190.24048984 161.7039386 C-187.19915625 158.63589876 -184.15444998 155.57126361 -181.10767734 152.5086261 C-180.07621082 151.46471207 -180.07621082 151.46471207 -179.02390659 150.39970887 C-175.28856967 146.64551793 -171.4716169 143.17206145 -167.36548984 139.8289386 C-165.76667676 138.11930138 -165.76667676 138.11930138 -164.49048984 136.4539386 C-162.45779785 133.99243214 -160.36839575 131.89684629 -157.92017734 129.8523761 C-152.09836695 124.82475179 -146.76565905 119.29911001 -141.36548984 113.8289386 C-129.46359208 101.77275698 -129.46359208 101.77275698 -123.16187656 96.39388001 C-120.11451998 93.7391429 -117.27454055 90.883059 -114.42798984 88.0164386 C-113.56464023 87.15888978 -113.56464023 87.15888978 -112.68384922 86.28401673 C-109.65404532 83.33818232 -109.65404532 83.33818232 -107.36548984 79.8289386 C-106.70548984 79.8289386 -106.04548984 79.8289386 -105.36548984 79.8289386 C-105.36548984 79.1689386 -105.36548984 78.5089386 -105.36548984 77.8289386 C-103.89673984 76.3836261 -103.89673984 76.3836261 -101.86548984 74.7039386 C-98.89871623 72.18635959 -96.08974735 69.60724884 -93.36548984 66.8289386 C-90.73322445 64.15013021 -88.03691719 61.6391225 -85.17798984 59.2039386 C-82.79010719 57.15453253 -80.89838514 55.26841296 -78.86548984 52.8289386 C-76.88710655 50.45487866 -75.13346153 48.69958004 -72.80298984 46.7351886 C-67.91105707 42.50528851 -63.39964468 37.93587282 -58.86548984 33.3289386 C-49.1046346 23.41140832 -49.1046346 23.41140832 -43.79894912 19.13185132 C-41.76970926 17.21147307 -40.30281502 15.46107775 -38.65991294 13.23553669 C-27.93492999 -0.44946134 -16.51234913 -0.32274837 0 0 Z " fill="#ED4830" transform="translate(629.3654898405075,37.171061396598816)"/>
<path d="M0 0 C291.39 0 582.78 0 883 0 C883 33 883 66 883 100 C591.61 100 300.22 100 0 100 C0 67 0 34 0 0 Z " fill="#ffffff" transform="translate(29,670)"/>
<path d="M0 0 C2 2 2 2 2.24839699 4.10788548 C2.24725783 5.42817307 2.24725783 5.42817307 2.24609566 6.77513313 C2.25007775 7.78929995 2.25405985 8.80346676 2.25816262 9.8483659 C2.25233693 10.97091523 2.24651125 12.09346455 2.24050903 13.25003052 C2.24307231 15.02893907 2.24307231 15.02893907 2.24568737 16.84378517 C2.24842079 20.14581061 2.24213722 23.44760113 2.23213124 26.74959826 C2.22352015 30.30651528 2.22641524 33.86342462 2.22793579 37.42034912 C2.22898613 43.58634294 2.22269401 49.75229454 2.21146011 55.91827774 C2.1952282 64.83332424 2.18999948 73.74835026 2.18748413 82.66340993 C2.18310339 97.1263669 2.16978404 111.58930136 2.15087891 126.05224609 C2.13252989 140.10432828 2.1183686 154.15640435 2.10986328 168.20849609 C2.10933783 169.07419936 2.10881239 169.93990263 2.10827102 170.83183934 C2.105661 175.17467869 2.10313357 179.51751809 2.10064721 183.86035752 C2.07990292 219.90692092 2.04466711 255.95345871 2 292 C-38.15433049 292.1601696 -78.3086194 292.2835409 -118.46320543 292.35745731 C-123.20219607 292.36621241 -127.94118608 292.37527265 -132.68017578 292.38452148 C-133.62363619 292.38635766 -134.56709659 292.38819383 -135.53914671 292.39008565 C-150.82205961 292.42055735 -166.10478848 292.47575619 -181.38759215 292.54006957 C-197.06540169 292.60549571 -212.74311474 292.64440414 -228.4210552 292.65861946 C-238.09781704 292.66823159 -247.77405875 292.69860597 -257.45066051 292.75541527 C-264.08338024 292.79237455 -270.71583049 292.80361042 -277.34864576 292.79450964 C-281.17749981 292.79001922 -285.00544409 292.79697331 -288.83413696 292.83443832 C-292.98398581 292.87474981 -297.13189126 292.86094061 -301.28189087 292.84178162 C-302.49395348 292.86217151 -303.70601609 292.8825614 -304.95480788 292.90356916 C-312.8922251 292.80414744 -312.8922251 292.80414744 -316.07905078 290.49079144 C-319.9153259 286.18448283 -321.38101902 282.22743487 -321.2734375 276.375 C-319.5680517 261.56250618 -308.43493525 253.27840848 -297.86328125 244.15625 C-294.50448645 241.25277316 -291.28370668 238.30913141 -288.1875 235.125 C-276.34056122 223.11352041 -276.34056122 223.11352041 -270 221 C-270 220.34 -270 219.68 -270 219 C-268.56640625 217.58984375 -268.56640625 217.58984375 -266.5625 215.9375 C-263.44304054 213.29416856 -260.53455407 210.55941855 -257.6875 207.625 C-253.57541985 203.4562015 -249.18493005 199.780225 -244.625 196.11328125 C-238.00719525 190.78555451 -231.99498587 185.06290328 -226.1015625 178.94140625 C-224 177 -224 177 -222 177 C-222 176.34 -222 175.68 -222 175 C-220.234375 173.44140625 -220.234375 173.44140625 -217.75 171.5625 C-209.31886888 164.98239625 -201.4512291 157.72808798 -194.109375 149.94921875 C-192.21493613 148.19861691 -190.30356569 146.71802959 -188.2265625 145.1953125 C-184.07707033 142.12865021 -180.35166326 138.74855569 -176.625 135.1875 C-175.31442024 133.94986591 -174.00322151 132.71288696 -172.69140625 131.4765625 C-172.06121582 130.88133789 -171.43102539 130.28611328 -170.78173828 129.67285156 C-164.88558173 124.13702467 -158.80972219 118.7958768 -152.69140625 113.5078125 C-150.96919436 112.01648381 -150.96919436 112.01648381 -149.40234375 110.3046875 C-148 109 -148 109 -146 109 C-146 108.34 -146 107.68 -146 107 C-144.63671875 105.625 -144.63671875 105.625 -142.6875 104 C-139.22982451 101.06250578 -135.84755259 98.06275384 -132.5 95 C-129.38092989 92.15475772 -126.25244609 89.3280042 -123.0625 86.5625 C-119.16597725 83.17595159 -115.36647172 79.68662005 -111.56713867 76.19213867 C-106.74434099 71.75789684 -101.87667429 67.37489429 -97 63 C-95.33307353 61.50028872 -93.66640851 60.00028679 -92 58.5 C-89.52497766 56.27170886 -87.04928246 54.0442116 -84.5703125 51.8203125 C-80.5047259 48.17037693 -76.45422433 44.50565715 -72.43261719 40.80737305 C-65.7111346 34.62634823 -58.9774453 28.54153258 -51.8125 22.875 C-48.30693194 20.08975415 -45.08830066 17.2508428 -42 14 C-29.94195282 1.40603961 -17.46710451 -9.92943285 0 0 Z " fill="#ED4830" transform="translate(910,352)"/>
<path d="M0 0 C19.8 0 39.6 0 60 0 C60 24.75 60 49.5 60 75 C80.46 75 100.92 75 122 75 C122 50.25 122 25.5 122 0 C141.8 0 161.6 0 182 0 C182 71.28 182 142.56 182 216 C162.2 216 142.4 216 122 216 C122 187.29 122 158.58 122 129 C101.54 129 81.08 129 60 129 C60 157.71 60 186.42 60 216 C40.2 216 20.4 216 0 216 C0 144.72 0 73.44 0 0 Z " fill="#686868" transform="translate(1193,553)"/>
<path d="M0 0 C120 0 120 0 144 16 C144 16.66 144 17.32 144 18 C144.66 18 145.32 18 146 18 C166.2601808 40.16498412 175.12396431 68.02488046 175.16796875 97.8125 C175.17129715 98.62509277 175.17462555 99.43768555 175.17805481 100.27490234 C175.18308299 101.98583416 175.18546442 103.69677565 175.18530273 105.40771484 C175.18747118 107.96599432 175.20562137 110.52382876 175.22460938 113.08203125 C175.27492043 127.32238146 174.4780305 141.35397013 170.5625 155.125 C170.35818359 155.89585937 170.15386719 156.66671875 169.94335938 157.4609375 C168.65638457 162.17583587 167.02357009 166.55168558 165 171 C164.34 171 163.68 171 163 171 C162.76667969 171.83660156 162.53335937 172.67320312 162.29296875 173.53515625 C160.77702808 177.59751086 158.7379383 180.86682869 156.3125 184.4375 C155.86479248 185.10056152 155.41708496 185.76362305 154.95581055 186.44677734 C151.7288385 191.13540172 148.41205352 195.36032036 144 199 C143.47277344 199.4434375 142.94554687 199.886875 142.40234375 200.34375 C106.67266895 228.04902975 26.56234257 215 0 215 C0 144.05 0 73.1 0 0 Z M60 51 C60 88.62 60 126.24 60 165 C81.69733343 166.60429606 81.69733343 166.60429606 102 159 C116.48736972 144.01648748 115.46041906 121.64436543 115.1875 102.171875 C114.88556266 89.7094111 114.32013384 71.83563623 105.3359375 62.21875 C91.19067477 49.82051175 80.20273031 51 60 51 Z " fill="#686868" transform="translate(1398,45)"/>
<path d="M0 0 C19.8 0 39.6 0 60 0 C60.01458252 4.18864746 60.02916504 8.37729492 60.04418945 12.69287109 C60.09456041 26.54301603 60.16101091 40.39304484 60.23571491 54.24307823 C60.28060965 62.63909014 60.32003877 71.03506022 60.34643555 79.43115234 C60.36946696 86.75234823 60.40292211 94.07341107 60.44870156 101.39450133 C60.4725647 105.26811078 60.49133858 109.14158904 60.49761391 113.01527023 C60.50369625 116.66790718 60.52380836 120.32020874 60.55427551 123.9727211 C60.56714054 125.93884621 60.56549445 127.90504987 60.5632782 129.87121582 C60.6786455 140.83666941 62.67104313 151.42420815 70 160 C79.62162871 166.53431483 90.78862995 167.56608604 102.03125 165.421875 C109.68565838 162.82315611 113.78494314 157.49089272 117.28125 150.40234375 C119.98115746 144.0093486 121.11358235 138.02789076 121.15821838 131.0774231 C121.1680072 129.916436 121.17779602 128.75544891 121.18788147 127.5592804 C121.19363693 126.29980087 121.1993924 125.04032135 121.20532227 123.74267578 C121.21491088 122.39205126 121.22492153 121.04142968 121.23532104 119.69081116 C121.26226968 116.0363432 121.28333335 112.38186247 121.30332303 108.72735071 C121.3252448 104.90364938 121.3526031 101.079987 121.37937927 97.25631714 C121.42922266 90.02105618 121.47419236 82.78577352 121.51740164 75.55047023 C121.5760957 65.76958273 121.64233752 55.98874651 121.70815182 46.20790482 C121.81159577 30.80530447 121.90497178 15.40265989 122 0 C141.8 0 161.6 0 182 0 C182.08060607 32.87831969 182.08060607 32.87831969 182.09765625 46.75390625 C182.10948085 56.29966402 182.12331104 65.84538625 182.15087891 75.39111328 C182.17095493 82.34607286 182.18374975 89.30100335 182.18817699 96.2559911 C182.19076059 99.9308992 182.19673434 103.60572415 182.21146011 107.28060532 C182.33237201 138.71894739 182.20856525 173.33191584 158.65625 197.39453125 C150.9369232 204.57779369 142.84271539 210.18991662 133 214 C132.11828125 214.350625 131.2365625 214.70125 130.328125 215.0625 C107.21436193 223.55836967 81.79531885 220.03220963 58 217 C58 216.34 58 215.68 58 215 C56.9275 214.938125 55.855 214.87625 54.75 214.8125 C39.36550968 212.80464765 26.76227786 202.32425821 17.26367188 190.65917969 C-0.64599543 167.14409101 -0.62608664 136.74605595 -0.40557575 108.49840164 C-0.38009786 104.66685272 -0.37818443 100.83528268 -0.37347412 97.00366211 C-0.36117753 89.79010902 -0.32854214 82.57680644 -0.28807616 75.36336231 C-0.23445063 65.58607954 -0.21330501 55.80872536 -0.19006729 46.03133202 C-0.1527663 30.68736804 -0.07298911 15.34393198 0 0 Z " fill="#686868" transform="translate(1179,45)"/>
<path d="M0 0 C52.14 0 104.28 0 158 0 C158 15.84 158 31.68 158 48 C125.66 48 93.32 48 60 48 C60 58.23 60 68.46 60 79 C90.36 79 120.72 79 152 79 C152 93.85 152 108.7 152 124 C121.64 124 91.28 124 60 124 C60 137.53 60 151.06 60 165 C93.33 165 126.66 165 161 165 C161 181.83 161 198.66 161 216 C107.87 216 54.74 216 0 216 C0 144.72 0 73.44 0 0 Z " fill="#686868" transform="translate(1805,553)"/>
<path d="M0 0 C52.14 0 104.28 0 158 0 C158 15.84 158 31.68 158 48 C125.66 48 93.32 48 60 48 C60 58.56 60 69.12 60 80 C89.7 80 119.4 80 150 80 C150 94.85 150 109.7 150 125 C120.3 125 90.6 125 60 125 C60 138.53 60 152.06 60 166 C93.33 166 126.66 166 161 166 C161 182.83 161 199.66 161 217 C107.87 217 54.74 217 0 217 C0 145.39 0 73.78 0 0 Z " fill="#ED4830" transform="translate(989,299)"/>
<path d="M0 0 C11.10108875 10.123792 15.5407621 23.75076054 18.23046875 38.015625 C18.40771484 38.92892578 18.58496094 39.84222656 18.76757812 40.78320312 C19.19808234 43.00553571 19.62311393 45.22876047 20.04296875 47.453125 C16.73107264 50.47121193 14.6630013 50.7675039 10.2421875 50.578125 C2.72926486 50.40177024 -4.65494345 50.89357982 -12.14453125 51.453125 C-20.42934084 52.0665076 -28.64619698 52.6284231 -36.95703125 52.453125 C-37.13572754 51.8648291 -37.31442383 51.2765332 -37.49853516 50.67041016 C-40.56567427 40.73640327 -43.81046373 32.42344029 -53.20703125 27.203125 C-60.44245623 25.22982728 -67.87480543 24.59784028 -74.95703125 27.453125 C-78.12121662 30.01140254 -80.72384843 32.52936147 -81.95703125 36.453125 C-82.39055901 43.24095106 -82.39055901 43.24095106 -79.95703125 49.453125 C-75.87003428 51.36343457 -71.51401768 52.57324184 -67.20703125 53.890625 C-63.03899687 55.17092238 -58.88475194 56.47104138 -54.7578125 57.87890625 C-50.00667616 59.47503097 -45.19657028 60.83387026 -40.37670898 62.20556641 C-16.30449502 69.10166584 3.98052864 76.629642 18.04296875 98.453125 C18.55988281 99.25363281 19.07679688 100.05414063 19.609375 100.87890625 C21.16972287 103.68072981 22.18012043 106.40401839 23.16796875 109.453125 C23.66683594 110.9690625 23.66683594 110.9690625 24.17578125 112.515625 C26.1269341 119.12493556 26.22629375 125.28944391 26.23046875 132.140625 C26.24271484 133.17896484 26.25496094 134.21730469 26.26757812 135.28710938 C26.28695308 145.58812643 24.69421169 154.26040296 20.04296875 163.453125 C19.76146973 164.02256836 19.4799707 164.59201172 19.18994141 165.17871094 C11.73487536 180.1817893 3.12228803 189.59931287 -11.95703125 197.453125 C-12.61703125 197.453125 -13.27703125 197.453125 -13.95703125 197.453125 C-13.95703125 198.113125 -13.95703125 198.773125 -13.95703125 199.453125 C-16.34915961 200.25766625 -18.74489123 201.04654051 -21.14453125 201.828125 C-21.79873047 202.04984375 -22.45292969 202.2715625 -23.12695312 202.5 C-50.03918799 211.1731373 -80.61155617 208.79831239 -106.95703125 199.453125 C-106.95703125 198.793125 -106.95703125 198.133125 -106.95703125 197.453125 C-107.80007813 197.28490234 -107.80007813 197.28490234 -108.66015625 197.11328125 C-120.67817081 193.65912401 -128.90459911 183.53935408 -134.99609375 173.234375 C-141.31891603 161.51094029 -145.19152192 149.81909333 -144.95703125 136.453125 C-145.61703125 136.453125 -146.27703125 136.453125 -146.95703125 136.453125 C-146.99957481 134.45357754 -146.99783908 132.45270864 -146.95703125 130.453125 C-144.78269732 128.27879107 -139.93619988 128.90372213 -136.91015625 128.69921875 C-135.98797302 128.63404556 -135.06578979 128.56887238 -134.11566162 128.50172424 C-132.15197282 128.3641899 -130.18811833 128.22900464 -128.22412109 128.09594727 C-125.26087696 127.89428937 -122.29842965 127.68308858 -119.3359375 127.47070312 C-109.52692989 126.78404772 -99.79490082 126.21195506 -89.95703125 126.453125 C-88.56416336 130.0745815 -87.19622467 133.65793976 -86.078125 137.375 C-83.25098673 146.69627596 -79.71449501 153.5760455 -71.03125 158.48828125 C-62.65149893 162.38620689 -54.95550256 161.98180386 -46.2890625 159.40234375 C-43.82277339 158.39847733 -42.0614762 157.06187628 -39.95703125 155.453125 C-39.29703125 155.453125 -38.63703125 155.453125 -37.95703125 155.453125 C-37.68890625 154.916875 -37.42078125 154.380625 -37.14453125 153.828125 C-36.27306019 152.08518288 -35.32337605 150.38078543 -34.33203125 148.703125 C-32.69152272 144.82555939 -32.25379111 141.56867809 -32.95703125 137.453125 C-36.58775453 129.029847 -42.11439643 125.01005528 -50.53125 121.63671875 C-60.29192727 117.76723616 -70.34959309 114.82014225 -80.4140625 111.85400391 C-91.71796886 108.50745268 -101.77876824 104.41417345 -111.95703125 98.453125 C-113.304021 97.68476318 -113.304021 97.68476318 -114.67822266 96.90087891 C-125.7212192 90.43931145 -134.24603345 77.46081316 -137.57275391 65.18017578 C-141.41872451 47.70946628 -140.5537593 28.39683725 -130.87109375 12.95703125 C-119.30625209 -3.29461466 -103.96953525 -11.83319012 -84.58203125 -15.296875 C-55.96259368 -19.82272581 -23.51531303 -18.58695401 0 0 Z " fill="#EB4830" transform="translate(1314.95703125,312.546875)"/>
<path d="M0 0 C7.81017005 8.17063944 15.1654996 19.95923882 15.6640625 31.56640625 C15.6228125 32.25605469 15.5815625 32.94570312 15.5390625 33.65625 C16.1990625 33.65625 16.8590625 33.65625 17.5390625 33.65625 C18.5290625 40.58625 18.5290625 40.58625 19.5390625 47.65625 C0.51604838 49.28905871 -18.35555349 50.8690575 -37.4609375 50.65625 C-37.96653658 49.22070975 -38.4652124 47.7827298 -38.9609375 46.34375 C-39.239375 45.54324219 -39.5178125 44.74273437 -39.8046875 43.91796875 C-40.4609375 41.65625 -40.4609375 41.65625 -40.4609375 38.65625 C-41.1209375 38.65625 -41.7809375 38.65625 -42.4609375 38.65625 C-43.46875 37.08203125 -43.46875 37.08203125 -44.5859375 34.96875 C-47.61334958 29.90210189 -51.72626213 26.86248055 -57.34765625 25.046875 C-64.50431051 23.72401839 -71.54127302 23.77460571 -77.90625 27.51171875 C-81.05129742 29.8270426 -82.24283588 32.00194513 -83.4609375 35.65625 C-83.72726668 39.25169389 -83.72371985 41.95002243 -82.4609375 45.34375 C-76.41049011 52.3395798 -65.56660629 53.71138004 -56.9609375 55.90625 C-55.55187062 56.27262036 -54.14301426 56.63980141 -52.734375 57.0078125 C-49.31227264 57.89998512 -45.88745114 58.78115154 -42.4609375 59.65625 C-42.4609375 60.31625 -42.4609375 60.97625 -42.4609375 61.65625 C-41.38070313 61.73875 -40.30046875 61.82125 -39.1875 61.90625 C-33.45047366 62.63251971 -28.22292163 64.62238431 -22.8359375 66.65625 C-21.77576416 67.05634277 -20.71559082 67.45643555 -19.62329102 67.86865234 C-5.71736917 73.29851295 6.84014784 80.55252701 14.3984375 93.859375 C15.46947967 95.70541046 15.46947967 95.70541046 17.05078125 97.1015625 C25.25871733 105.67573195 25.59807341 122.48522822 25.5390625 133.65625 C25.03251858 144.94873164 22.89537751 156.61315936 17.5390625 166.65625 C16.8790625 166.65625 16.2190625 166.65625 15.5390625 166.65625 C15.26191406 167.39359375 14.98476562 168.1309375 14.69921875 168.890625 C8.66799302 183.26809241 -3.2442693 192.24720212 -17.2109375 197.96875 C-17.86143066 198.23582764 -18.51192383 198.50290527 -19.18212891 198.77807617 C-22.54414435 200.098278 -24.7890482 200.65625 -28.4609375 200.65625 C-28.4609375 201.31625 -28.4609375 201.97625 -28.4609375 202.65625 C-50.07096695 206.30131521 -71.87270368 207.42025388 -93.4609375 202.65625 C-93.4609375 201.99625 -93.4609375 201.33625 -93.4609375 200.65625 C-94.5334375 200.594375 -95.6059375 200.5325 -96.7109375 200.46875 C-110.34199718 198.68974045 -122.6534606 189.88510282 -131.4609375 179.65625 C-133.42715926 176.74601359 -135.06074171 173.72397877 -136.6484375 170.59375 C-137.07769531 169.75956543 -137.50695312 168.92538086 -137.94921875 168.06591797 C-144.01406186 155.93855723 -147.76147138 142.30549726 -147.4609375 128.65625 C-128.16547706 126.65870233 -108.82813032 125.65132632 -89.4609375 124.65625 C-89.26975342 125.67525391 -89.07856934 126.69425781 -88.8815918 127.74414062 C-88.62056342 129.10031501 -88.35923567 130.45643179 -88.09765625 131.8125 C-87.97289917 132.4818457 -87.84814209 133.15119141 -87.71960449 133.84082031 C-85.99050085 142.72249554 -82.79283153 149.58123032 -75.61328125 155.25 C-68.23038353 160.07367183 -60.10153068 160.62938611 -51.4609375 159.65625 C-45.02477623 157.81058611 -39.49282684 154.59898629 -35.6484375 149.03125 C-33.54917252 143.06491797 -33.4617839 137.2195378 -35.9609375 131.34375 C-38.54213297 126.88694537 -41.94166142 124.91588804 -46.4609375 122.65625 C-47.29625 122.19734375 -48.1315625 121.7384375 -48.9921875 121.265625 C-56.28358201 117.54152565 -63.70673085 115.35002537 -71.5859375 113.21875 C-85.58500711 109.42493038 -99.2597973 105.48507219 -111.8359375 98.09375 C-112.43680176 97.74199707 -113.03766602 97.39024414 -113.65673828 97.02783203 C-117.85545171 94.40649589 -120.41883503 91.46535616 -123.4609375 87.65625 C-124.53819313 86.82833669 -125.63952428 86.029689 -126.7734375 85.28125 C-134.15777039 79.14383297 -139.13141208 67.02873116 -140.28125 57.67578125 C-140.34054687 56.67933594 -140.39984375 55.68289062 -140.4609375 54.65625 C-140.5223291 53.68631104 -140.5223291 53.68631104 -140.58496094 52.69677734 C-141.57449908 34.66019577 -138.22455063 18.4179074 -126.1484375 4.40625 C-110.19625003 -12.36876244 -89.70513006 -17.69014785 -67.1328125 -18.31640625 C-43.44757689 -18.60463393 -18.01111575 -17.15344357 0 0 Z " fill="#686868" transform="translate(1126.4609375,59.34375)"/>
<path d="M0 0 C21.78 0 43.56 0 66 0 C70 13 70 13 70 16 C70.66 16 71.32 16 72 16 C87.74612856 63.94399359 87.74612856 63.94399359 93.4375 82.125 C93.79577881 83.25768311 94.15405762 84.39036621 94.52319336 85.55737305 C96.1214621 90.71234121 97.45941362 95.62459175 98 101 C98.66 101 99.32 101 100 101 C102.44135869 108.43623735 104.87806714 115.8739926 107.3125 123.3125 C107.67492798 124.41957306 108.03735596 125.52664612 108.4107666 126.66726685 C113.5778437 142.46085271 118.66657866 158.2750705 123.5480957 174.15942383 C125.4887305 180.44195904 127.55202489 186.5980148 130.07128906 192.67407227 C131.68331407 196.7113389 132.96111041 200.85056464 134.25 205 C134.6521875 206.26650391 134.6521875 206.26650391 135.0625 207.55859375 C137 213.7368463 137 213.7368463 137 216 C116.21 216 95.42 216 74 216 C70 202 70 202 70 198 C69.34 198 68.68 198 68 198 C67.3304744 195.37569876 66.66426282 192.75063343 66 190.125 C65.80921875 189.37863281 65.6184375 188.63226562 65.421875 187.86328125 C64 182.2265625 64 182.2265625 64 180 C42.88 180 21.76 180 0 180 C-0.33 182.97 -0.66 185.94 -1 189 C-3.31 197.91 -5.62 206.82 -8 216 C-28.13 216 -48.26 216 -69 216 C-67.87493996 206.99951968 -67.87493996 206.99951968 -66.77587891 203.50048828 C-66.5307959 202.70875717 -66.28571289 201.91702606 -66.03320312 201.1013031 C-65.63391602 199.84846275 -65.63391602 199.84846275 -65.2265625 198.5703125 C-64.9466748 197.67373428 -64.66678711 196.77715607 -64.37841797 195.85340881 C-63.467383 192.94176448 -62.54643965 190.0333666 -61.625 187.125 C-60.99354222 185.11512705 -60.36252373 183.10511604 -59.73193359 181.0949707 C-54.26274297 163.69530699 -48.67208985 146.33451142 -43 129 C-42.34 129 -41.68 129 -41 129 C-40.83904343 128.09780479 -40.83904343 128.09780479 -40.67483521 127.17738342 C-39.48070718 120.82205905 -37.80709643 114.764821 -35.8046875 108.62109375 C-35.49577072 107.6582547 -35.18685394 106.69541565 -34.86857605 105.70339966 C-33.87581501 102.6130986 -32.87550362 99.525302 -31.875 96.4375 C-31.19275578 94.31844606 -30.51103512 92.19922348 -29.82983398 90.07983398 C-28.4955586 85.93092059 -27.15855888 81.78290345 -25.81884766 77.63574219 C-23.55179637 70.61607912 -21.30611544 63.58968298 -19.0625 56.5625 C-18.44944961 54.64706151 -17.83620025 52.73168668 -17.22265625 50.81640625 C-16.98297119 50.06818604 -16.74328613 49.31996582 -16.49633789 48.54907227 C-16.33254639 48.03787842 -16.16875488 47.52668457 -16 47 C-15.34 47 -14.68 47 -14 47 C-13.78472656 45.72125 -13.56945313 44.4425 -13.34765625 43.125 C-11.86607059 35.7209878 -9.49822791 28.58546469 -7.2043457 21.40185547 C-6.43087312 18.9792438 -5.66501458 16.5543237 -4.90039062 14.12890625 C-4.41189168 12.58580025 -3.92297481 11.04282647 -3.43359375 9.5 C-3.20441757 8.77611084 -2.97524139 8.05222168 -2.73912048 7.30639648 C-1.11742632 2.23485265 -1.11742632 2.23485265 0 0 Z M32 61 C31.73372803 62.04526855 31.46745605 63.09053711 31.19311523 64.16748047 C22.25345519 99.23997308 22.25345519 99.23997308 18 115.0625 C17.72212646 116.09938965 17.44425293 117.1362793 17.15795898 118.20458984 C15.89535819 122.86995294 14.53143509 127.40569474 13 132 C25.87 132 38.74 132 52 132 C50.906875 127.6275 49.81375 123.255 48.6875 118.75 C46.45833333 109.83333333 44.22916667 100.91666667 42 92 C41.34 92 40.68 92 40 92 C39.89816406 91.10152344 39.79632812 90.20304688 39.69140625 89.27734375 C38.88190116 83.61080812 37.35421735 78.10117454 35.9375 72.5625 C35.65583984 71.44939453 35.37417969 70.33628906 35.08398438 69.18945312 C34.39253227 66.45880329 33.69778507 63.72903708 33 61 C32.67 61 32.34 61 32 61 Z " fill="#686868" transform="translate(1463,553)"/>
<path d="M0 0 C0.33 0.99 0.66 1.98 1 3 C2.32338632 3.68620031 3.65949948 4.34786461 5 5 C18.70431306 14.56114865 28.67789414 34.81895194 32 51 C31.57373047 53.25854492 31.57373047 53.25854492 31 55 C30.44127197 55.13575439 29.88254395 55.27150879 29.30688477 55.41137695 C26.72445634 56.04119204 24.14348956 56.6768152 21.5625 57.3125 C20.68400391 57.52583984 19.80550781 57.73917969 18.90039062 57.95898438 C14.71278557 58.99429633 10.59851392 60.09268744 6.51953125 61.5 C1.46586364 63.23567652 -3.67541558 64.47206042 -8.875 65.6875 C-10.27878906 66.02491211 -10.27878906 66.02491211 -11.7109375 66.36914062 C-18.61110847 68 -18.61110847 68 -22 68 C-22.24234375 67.20335937 -22.4846875 66.40671875 -22.734375 65.5859375 C-26.27406445 54.39507316 -31.01630653 47.28484581 -41.03515625 41.015625 C-47.44105253 37.70442613 -55.94854511 38.00838517 -62.79296875 39.68359375 C-72.24277077 43.21445001 -79.5290952 48.84592192 -84 58 C-87.44291868 67.70177085 -89.14459084 77.1742335 -89.203125 87.43359375 C-89.21167511 88.6269912 -89.21167511 88.6269912 -89.22039795 89.84449768 C-89.22980066 91.52449231 -89.236363 93.204505 -89.24023438 94.88452148 C-89.24985378 97.39927361 -89.28088587 99.91317645 -89.3125 102.42773438 C-89.40860354 117.05645879 -88.99254792 135.36347067 -79.21484375 147.15234375 C-72.09693426 153.84572584 -63.74542228 157.10242936 -54 157 C-45.22763643 156.40931076 -37.19790343 153.77077168 -31.25390625 147.015625 C-26.09370636 139.24181738 -23.7163052 129.84244033 -21 121 C-20.34 121 -19.68 121 -19 121 C-19 119.35 -19 117.7 -19 116 C-12.29600564 117.36524207 -5.95557294 119.23558899 0.50390625 121.4765625 C1.4677977 121.80667328 2.43168915 122.13678406 3.42478943 122.47689819 C6.47226869 123.52174204 9.5173973 124.57325262 12.5625 125.625 C14.64112371 126.3389853 16.71989837 127.05253132 18.79882812 127.765625 C23.86764143 129.50534231 28.93454715 131.25052396 34 133 C29.26193334 158.30263499 20.70129349 178.96218471 0 195 C-0.7940625 195.64453125 -1.588125 196.2890625 -2.40625 196.953125 C-16.05131286 207.41433986 -33.49050721 209.35934406 -50.15991211 209.26074219 C-52.29895715 209.25006758 -54.43715294 209.26067163 -56.57617188 209.2734375 C-77.5560794 209.29655344 -96.00201502 205.57209455 -113 193 C-113.80824219 192.40703125 -114.61648438 191.8140625 -115.44921875 191.203125 C-137.11704819 173.61989537 -147.02263373 145.85048254 -150 119 C-150.533617 111.6543279 -150.53387611 104.29877054 -150.5 96.9375 C-150.49890228 95.95297852 -150.49780457 94.96845703 -150.49667358 93.95410156 C-150.44732561 78.50865492 -149.55018702 63.87049283 -145 49 C-144.79181641 48.31728027 -144.58363281 47.63456055 -144.36914062 46.93115234 C-143.16239879 43.15569064 -141.69704656 39.57877173 -140 36 C-139.47921875 34.90042969 -138.9584375 33.80085937 -138.421875 32.66796875 C-136.44884262 28.63091464 -134.49398721 24.74098082 -132 21 C-131.34 21 -130.68 21 -130 21 C-129.75894531 20.443125 -129.51789062 19.88625 -129.26953125 19.3125 C-127.7273879 16.50342658 -125.83984947 14.37301051 -123.6875 12 C-122.92824219 11.154375 -122.16898438 10.30875 -121.38671875 9.4375 C-119.04831981 7.04934789 -116.70739459 4.9591197 -114 3 C-113.34 3 -112.68 3 -112 3 C-111.505 1.515 -111.505 1.515 -111 0 C-108.72071314 -1.45266549 -106.53735293 -2.6823857 -104.125 -3.875 C-103.06817017 -4.40009155 -103.06817017 -4.40009155 -101.98999023 -4.93579102 C-73.33683891 -18.52249657 -26.05759225 -20.77794937 0 0 Z " fill="#686868" transform="translate(1133,563)"/>
<path d="M0 0 C14.49154383 -0.07037218 28.9830608 -0.12292532 43.47474098 -0.15543652 C50.20489878 -0.17084416 56.93494983 -0.19181538 63.66503906 -0.22631836 C70.16842141 -0.25908128 76.67169327 -0.27688864 83.17515182 -0.28463173 C85.64766553 -0.29014494 88.12017367 -0.30091033 90.59263992 -0.31719017 C127.42272636 -0.54989794 127.42272636 -0.54989794 141 11 C141 11.66 141 12.32 141 13 C141.7425 13.22816406 142.485 13.45632813 143.25 13.69140625 C150.4410723 17.11329435 155.01857884 26.85421071 157.96875 33.98046875 C164.21981852 52.2837868 164.8569261 75.5456337 159 94 C158.58234375 95.42892578 158.58234375 95.42892578 158.15625 96.88671875 C154.86340864 107.06330174 149.56069173 115.56596432 141 122 C140.03513672 122.86044922 140.03513672 122.86044922 139.05078125 123.73828125 C127.25705489 133.91881769 111.20197276 136.36432474 96.08203125 136.1953125 C94.77171936 136.19229126 94.77171936 136.19229126 93.43493652 136.18920898 C90.22740289 136.17888595 87.01994515 136.15096563 83.8125 136.125 C73.0153125 136.063125 73.0153125 136.063125 62 136 C62 162.4 62 188.8 62 216 C51.955625 216.020625 41.91125 216.04125 31.5625 216.0625 C28.3869751 216.071604 25.2114502 216.08070801 21.93969727 216.09008789 C19.44026736 216.09300677 16.94083698 216.09555539 14.44140625 216.09765625 C13.12942261 216.10277222 11.81743896 216.10788818 10.46569824 216.11315918 C9.22735229 216.11328003 7.98900635 216.11340088 6.71313477 216.11352539 C5.09097801 216.11685631 5.09097801 216.11685631 3.43605042 216.12025452 C1 216 1 216 0 215 C-0.09788593 212.23099828 -0.12993123 209.48694335 -0.12025452 206.71751404 C-0.12110894 205.83869586 -0.12196337 204.95987767 -0.12284368 204.05442864 C-0.12450119 201.08631436 -0.11897271 198.11825562 -0.11352539 195.15014648 C-0.11324355 193.03179933 -0.11340119 190.91345208 -0.1139679 188.79510498 C-0.114256 183.02467859 -0.10835725 177.25427278 -0.10139394 171.48385119 C-0.09516248 165.46067581 -0.09455677 159.43750001 -0.09336853 153.4143219 C-0.0902546 141.99978436 -0.08204038 130.58525635 -0.07201904 119.17072302 C-0.06085982 106.1794126 -0.05534794 93.18810173 -0.05032361 80.19678771 C-0.03985782 53.46451985 -0.02225718 26.73226046 0 0 Z M62 46 C62 60.85 62 75.7 62 91 C81.16776334 91.86397835 81.16776334 91.86397835 98 84 C102.49674955 78.55656633 104.31612775 73.08826629 103.875 66.0625 C103.03500794 59.70945658 100.94774686 54.46673799 96.125 50.125 C91.19129384 46.77007981 86.86818758 45.74362693 80.9453125 45.8046875 C79.94516113 45.80968262 78.94500977 45.81467773 77.91455078 45.81982422 C76.03872314 45.84713623 76.03872314 45.84713623 74.125 45.875 C68.123125 45.936875 68.123125 45.936875 62 46 Z " fill="#686868" transform="translate(1615,553)"/>
<path d="M0 0 C58.74 0 117.48 0 178 0 C178 18.15 178 36.3 178 55 C158.53 55 139.06 55 119 55 C119 108.46 119 161.92 119 217 C99.2 217 79.4 217 59 217 C59 163.54 59 110.08 59 55 C39.53 55 20.06 55 0 55 C0 36.85 0 18.7 0 0 Z " fill="#EC4830" transform="translate(1355,299)"/>
<path d="M0 0 C52.14 0 104.28 0 158 0 C158 0.33 158 0.66 158 1 C106.19 1 54.38 1 1 1 C1 71.62 1 142.24 1 215 C53.14 215 105.28 215 159 215 C159 199.16 159 183.32 159 167 C126.33 167 93.66 167 60 167 C60 166.67 60 166.34 60 166 C93.33 166 126.66 166 161 166 C161 182.83 161 199.66 161 217 C107.87 217 54.74 217 0 217 C0 145.39 0 73.78 0 0 Z " fill="#B45B4B" transform="translate(989,299)"/>
<path d="M0 0 C0.66 0 1.32 0 2 0 C2 52.8 2 105.6 2 160 C21.14 160 40.28 160 60 160 C60 160.66 60 161.32 60 162 C40.2 162 20.4 162 0 162 C0 108.54 0 55.08 0 0 Z " fill="#B95A49" transform="translate(1414,354)"/>
<path d="M0 0 C0.33 0.66 0.66 1.32 1 2 C0.01 3.485 0.01 3.485 -1 5 C-1.66 5 -2.32 5 -3 5 C-3 5.66 -3 6.32 -3 7 C-3.66 7 -4.32 7 -5 7 C-5 7.66 -5 8.32 -5 9 C-5.66 9 -6.32 9 -7 9 C-7 9.66 -7 10.32 -7 11 C-7.66 11 -8.32 11 -9 11 C-9 11.66 -9 12.32 -9 13 C-9.66 13 -10.32 13 -11 13 C-11 13.66 -11 14.32 -11 15 C-11.66 15 -12.32 15 -13 15 C-13 15.66 -13 16.32 -13 17 C-13.680625 17.391875 -14.36125 17.78375 -15.0625 18.1875 C-18.95679506 20.59036291 -21.86162112 23.69882337 -25 27 C-25.66 26.67 -26.32 26.34 -27 26 C-24.50434749 23.47483195 -22.00267549 20.95570627 -19.5 18.4375 C-18.80390625 17.73302734 -18.1078125 17.02855469 -17.390625 16.30273438 C-13.31045603 12.20367573 -9.14310682 8.2834468 -4.74414062 4.52758789 C-3.09028602 3.0790761 -1.53526643 1.57270476 0 0 Z " fill="#CE503B" transform="translate(425,213)"/>
<path d="M0 0 C0.99 0 1.98 0 3 0 C3 0.66 3 1.32 3 2 C2.34 2 1.68 2 1 2 C1 2.66 1 3.32 1 4 C0.34 4 -0.32 4 -1 4 C-1 4.66 -1 5.32 -1 6 C-1.66 6 -2.32 6 -3 6 C-3 6.66 -3 7.32 -3 8 C-3.99 8 -4.98 8 -6 8 C-6.33 9.32 -6.66 10.64 -7 12 C-7.66 12 -8.32 12 -9 12 C-9 12.66 -9 13.32 -9 14 C-9.66 14 -10.32 14 -11 14 C-11.33 14.99 -11.66 15.98 -12 17 C-14.0625 17.6875 -14.0625 17.6875 -16 18 C-4.85714286 4.85714286 -4.85714286 4.85714286 0 0 Z " fill="#CC543A" transform="translate(301,334)"/>
<path d="M0 0 C0 3 0 3 -2.51953125 5.7421875 C-3.60995892 6.79400418 -4.70797598 7.8379959 -5.8125 8.875 C-9.54833017 12.40401742 -12.35072032 15.56066649 -15 20 C-15.99 20.33 -16.98 20.66 -18 21 C-18 21.66 -18 22.32 -18 23 C-19.32 23.33 -20.64 23.66 -22 24 C-14.97128557 15.70972145 -7.80136715 7.57560411 0 0 Z " fill="#CA5039" transform="translate(131,504)"/>
<path d="M0 0 C0.66 0 1.32 0 2 0 C2 0.99 2 1.98 2 3 C1.34 3 0.68 3 0 3 C0 3.66 0 4.32 0 5 C-0.66 5 -1.32 5 -2 5 C-2 5.66 -2 6.32 -2 7 C-2.66 7 -3.32 7 -4 7 C-4 7.66 -4 8.32 -4 9 C-4.66 9 -5.32 9 -6 9 C-6 9.66 -6 10.32 -6 11 C-6.66 11 -7.32 11 -8 11 C-8.2475 11.5775 -8.495 12.155 -8.75 12.75 C-10.16683317 15.3002997 -11.87627537 17.01785701 -14 19 C-14.99 18.67 -15.98 18.34 -17 18 C-16.58113525 17.58637207 -16.16227051 17.17274414 -15.73071289 16.74658203 C-13.83870591 14.87533169 -11.95056815 13.00022415 -10.0625 11.125 C-9.40314453 10.47402344 -8.74378906 9.82304688 -8.06445312 9.15234375 C-7.43603516 8.52714844 -6.80761719 7.90195313 -6.16015625 7.2578125 C-5.57886963 6.6817627 -4.99758301 6.10571289 -4.39868164 5.51220703 C-2.90048064 4.03347525 -2.90048064 4.03347525 -2 2 C-1.34 2 -0.68 2 0 2 C0 1.34 0 0.68 0 0 Z " fill="#D14E3B" transform="translate(524,115)"/>
<path d="M0 0 C0.33 0.99 0.66 1.98 1 3 C0.08476563 3.03738281 -0.83046875 3.07476562 -1.7734375 3.11328125 C-2.96195313 3.17902344 -4.15046875 3.24476563 -5.375 3.3125 C-6.55835938 3.37050781 -7.74171875 3.42851562 -8.9609375 3.48828125 C-9.96382812 3.65714844 -10.96671875 3.82601563 -12 4 C-12.66 4.99 -13.32 5.98 -14 7 C-13.34 7 -12.68 7 -12 7 C-12 9.97 -12 12.94 -12 16 C-12.33 16 -12.66 16 -13 16 C-13 13.36 -13 10.72 -13 8 C-13.66 8 -14.32 8 -15 8 C-15.04254356 6.00045254 -15.04080783 3.99958364 -15 2 C-13.05909174 0.05909174 -9.52706098 0.60080565 -6.9375 0.4375 C-5.64714844 0.35371094 -4.35679688 0.26992188 -3.02734375 0.18359375 C-2.02832031 0.12300781 -1.02929688 0.06242187 0 0 Z " fill="#BD5646" transform="translate(1183,441)"/>
<path d="M0 0 C0.33 0 0.66 0 1 0 C1.33 2.64 1.66 5.28 2 8 C-2.46334184 9.72293135 -6.10201231 10.22240791 -10.875 10.125 C-12.02742188 10.10695313 -13.17984375 10.08890625 -14.3671875 10.0703125 C-15.23601562 10.04710937 -16.10484375 10.02390625 -17 10 C-17 9.01 -17 8.02 -17 7 C-11.72 7 -6.44 7 -1 7 C-0.67 4.69 -0.34 2.38 0 0 Z " fill="#C45646" transform="translate(1333,353)"/>
<path d="M0 0 C0.99 0.33 1.98 0.66 3 1 C0.70507812 2.85546875 0.70507812 2.85546875 -1.58984375 4.7109375 C-3.13266437 5.9666391 -3.13266437 5.9666391 -4 8 C-4.66 8 -5.32 8 -6 8 C-6 8.66 -6 9.32 -6 10 C-6.66 10 -7.32 10 -8 10 C-8 10.66 -8 11.32 -8 12 C-8.66 12 -9.32 12 -10 12 C-10 12.66 -10 13.32 -10 14 C-10.66 14 -11.32 14 -12 14 C-12 14.66 -12 15.32 -12 16 C-12.66 16 -13.32 16 -14 16 C-14 16.66 -14 17.32 -14 18 C-14.99 17.67 -15.98 17.34 -17 17 C-11.33333333 11.33333333 -5.66666667 5.66666667 0 0 Z " fill="#D34D3B" transform="translate(596,46)"/>
<path d="M0 0 C0 0.99 0 1.98 0 3 C-0.66 3 -1.32 3 -2 3 C-2 3.66 -2 4.32 -2 5 C-2.66 5 -3.32 5 -4 5 C-4 5.66 -4 6.32 -4 7 C-4.66 7 -5.32 7 -6 7 C-6 7.66 -6 8.32 -6 9 C-6.66 9 -7.32 9 -8 9 C-8 9.66 -8 10.32 -8 11 C-8.66 11 -9.32 11 -10 11 C-10 11.66 -10 12.32 -10 13 C-10.66 13 -11.32 13 -12 13 C-12 13.66 -12 14.32 -12 15 C-12.66 15 -13.32 15 -14 15 C-12.36851044 11.10667264 -9.82372058 8.35280925 -7 5.25 C-6.54882812 4.74339844 -6.09765625 4.23679687 -5.6328125 3.71484375 C-2.2483996 0 -2.2483996 0 0 0 Z " fill="#CD523B" transform="translate(109,528)"/>
<path d="M0 0 C0.66 0 1.32 0 2 0 C0.38989473 4.07376031 -2.53822271 6.76507069 -5.625 9.75 C-6.140625 10.25660156 -6.65625 10.76320313 -7.1875 11.28515625 C-8.45383339 12.52803902 -9.7263144 13.76465276 -11 15 C-11.66 14.67 -12.32 14.34 -13 14 C-13 13.34 -13 12.68 -13 12 C-12.34 12 -11.68 12 -11 12 C-11 11.34 -11 10.68 -11 10 C-10.34 10 -9.68 10 -9 10 C-9 9.34 -9 8.68 -9 8 C-8.01 8 -7.02 8 -6 8 C-6 7.34 -6 6.68 -6 6 C-5.34 6 -4.68 6 -4 6 C-4 5.34 -4 4.68 -4 4 C-3.34 4 -2.68 4 -2 4 C-1.34 2.68 -0.68 1.36 0 0 Z " fill="#D54F3B" transform="translate(690,288)"/>
<path d="M0 0 C0.66 0 1.32 0 2 0 C0.53424802 3.37198902 -1.35181521 5.64987004 -3.9375 8.25 C-4.62714844 8.95640625 -5.31679688 9.6628125 -6.02734375 10.390625 C-8 12 -8 12 -11 12 C-10.34 10.68 -9.68 9.36 -9 8 C-8.34 8 -7.68 8 -7 8 C-7 7.34 -7 6.68 -7 6 C-6.34 6 -5.68 6 -5 6 C-5 5.34 -5 4.68 -5 4 C-4.34 4 -3.68 4 -3 4 C-3 3.34 -3 2.68 -3 2 C-2.01 2 -1.02 2 0 2 C0 1.34 0 0.68 0 0 Z " fill="#CE503B" transform="translate(346,622)"/>
<path d="M0 0 C2.27057377 -0.05398987 4.54151288 -0.09278742 6.8125 -0.125 C8.07707031 -0.14820313 9.34164063 -0.17140625 10.64453125 -0.1953125 C14 0 14 0 17 2 C8.585 2.495 8.585 2.495 0 3 C0 2.01 0 1.02 0 0 Z " fill="#CB5342" transform="translate(1285,362)"/>
<path d="M0 0 C0.66 0 1.32 0 2 0 C1.54300722 5.02692063 -0.99241748 8.14896261 -4 12 C-4.66 11.67 -5.32 11.34 -6 11 C-6 10.01 -6 9.02 -6 8 C-5.34 8 -4.68 8 -4 8 C-4 7.34 -4 6.68 -4 6 C-3.34 6 -2.68 6 -2 6 C-2 5.34 -2 4.68 -2 4 C-1.34 4 -0.68 4 0 4 C0 2.68 0 1.36 0 0 Z " fill="#CC533D" transform="translate(907,66)"/>
<path d="M0 0 C0.99 0.33 1.98 0.66 3 1 C0.69 3.97 -1.62 6.94 -4 10 C-4.66 9.67 -5.32 9.34 -6 9 C-6 8.01 -6 7.02 -6 6 C-5.34 6 -4.68 6 -4 6 C-4 5.34 -4 4.68 -4 4 C-3.34 4 -2.68 4 -2 4 C-2 3.34 -2 2.68 -2 2 C-1.34 2 -0.68 2 0 2 C0 1.34 0 0.68 0 0 Z " fill="#CF503B" transform="translate(1326,487)"/>
<path d="M0 0 C4.29718241 1.90985885 7.6891507 4.6891507 11 8 C10.01 8.33 9.02 8.66 8 9 C8 8.34 8 7.68 8 7 C6.68 7 5.36 7 4 7 C4 6.34 4 5.68 4 5 C3.34 5 2.68 5 2 5 C1.34 4.34 0.68 3.68 0 3 C0 2.01 0 1.02 0 0 Z " fill="#D64F39" transform="translate(1233,464)"/>
<path d="M0 0 C0.66 0 1.32 0 2 0 C0.59155282 3.21524305 -1.10344786 5.32183868 -3.625 7.75 C-4.57246094 8.67039062 -4.57246094 8.67039062 -5.5390625 9.609375 C-6.02117188 10.06828125 -6.50328125 10.5271875 -7 11 C-7.66 10.01 -8.32 9.02 -9 8 C-8.34 8 -7.68 8 -7 8 C-7 7.34 -7 6.68 -7 6 C-6.01 6 -5.02 6 -4 6 C-4 5.34 -4 4.68 -4 4 C-3.34 4 -2.68 4 -2 4 C-2 3.34 -2 2.68 -2 2 C-1.34 2 -0.68 2 0 2 C0 1.34 0 0.68 0 0 Z " fill="#D34F3C" transform="translate(605,371)"/>
<path d="M0 0 C0.33 0.66 0.66 1.32 1 2 C0.67 2.66 0.34 3.32 0 4 C-0.66 4 -1.32 4 -2 4 C-2 4.66 -2 5.32 -2 6 C-4.8516514 9.24771409 -6.74642936 11.19109447 -11 12 C-7.49102731 7.81576108 -3.91939465 3.80411834 0 0 Z " fill="#D64F3C" transform="translate(437,201)"/>
<path d="M0 0 C0.99 0.33 1.98 0.66 3 1 C2.34 1 1.68 1 1 1 C1 1.66 1 2.32 1 3 C0.34 3 -0.32 3 -1 3 C-1.33 3.99 -1.66 4.98 -2 6 C-4.4375 7.75 -4.4375 7.75 -7 9 C-7.66 8.67 -8.32 8.34 -9 8 C-6.03 5.36 -3.06 2.72 0 0 Z " fill="#C64E3C" transform="translate(610,598)"/>
<path d="M0 0 C0.66 0.33 1.32 0.66 2 1 C0.90033225 2.29549899 -0.20491801 3.58626071 -1.3125 4.875 C-1.92738281 5.59429688 -2.54226563 6.31359375 -3.17578125 7.0546875 C-5 9 -5 9 -8 11 C-8 10.01 -8 9.02 -8 8 C-7.34 8 -6.68 8 -6 8 C-6 7.34 -6 6.68 -6 6 C-5.34 6 -4.68 6 -4 6 C-3.67 4.68 -3.34 3.36 -3 2 C-2.01 2 -1.02 2 0 2 C0 1.34 0 0.68 0 0 Z " fill="#CC533E" transform="translate(406,564)"/>
<path d="M0 0 C0.33 0.66 0.66 1.32 1 2 C0.67 2.66 0.34 3.32 0 4 C-0.66 3.67 -1.32 3.34 -2 3 C-1.34 2.01 -0.68 1.02 0 0 Z M-3 4 C-2.67 4.66 -2.34 5.32 -2 6 C-2.33 6.66 -2.66 7.32 -3 8 C-3.66 8 -4.32 8 -5 8 C-5.66 9.32 -6.32 10.64 -7 12 C-7.99 11.67 -8.98 11.34 -10 11 C-7.69 8.69 -5.38 6.38 -3 4 Z " fill="#CC4E3B" transform="translate(322,313)"/>
<path d="M0 0 C0 0.66 0 1.32 0 2 C-0.61875 2.0825 -1.2375 2.165 -1.875 2.25 C-4.16352629 2.79948083 -4.16352629 2.79948083 -5.125 4.9375 C-5.41375 5.618125 -5.7025 6.29875 -6 7 C-6.66 7.66 -7.32 8.32 -8 9 C-8.99 8.67 -9.98 8.34 -11 8 C-9.54712339 6.66072279 -8.08752741 5.32873153 -6.625 4 C-5.81289063 3.2575 -5.00078125 2.515 -4.1640625 1.75 C-2 0 -2 0 0 0 Z " fill="#D85035" transform="translate(545,98)"/>
<path d="M0 0 C0.33 1.32 0.66 2.64 1 4 C0.34 4 -0.32 4 -1 4 C-1 4.66 -1 5.32 -1 6 C-1.66 6 -2.32 6 -3 6 C-3 6.66 -3 7.32 -3 8 C-4.32 7.67 -5.64 7.34 -7 7 C-4.69 4.69 -2.38 2.38 0 0 Z " fill="#CD503B" transform="translate(716,502)"/>
<path d="M0 0 C0.33 1.32 0.66 2.64 1 4 C0.34 4 -0.32 4 -1 4 C-1 4.99 -1 5.98 -1 7 C-1.66 7 -2.32 7 -3 7 C-3 7.66 -3 8.32 -3 9 C-4.32 9.33 -5.64 9.66 -7 10 C-6.34 8.68 -5.68 7.36 -5 6 C-4.34 6 -3.68 6 -3 6 C-2.690625 5.38125 -2.38125 4.7625 -2.0625 4.125 C-1.375 2.75 -0.6875 1.375 0 0 Z " fill="#CC5138" transform="translate(1280,462)"/>
<path d="M0 0 C0.33 0.99 0.66 1.98 1 3 C0.34 3 -0.32 3 -1 3 C-1 3.66 -1 4.32 -1 5 C-1.66 5 -2.32 5 -3 5 C-3 5.66 -3 6.32 -3 7 C-3.66 7 -4.32 7 -5 7 C-5 7.66 -5 8.32 -5 9 C-5.99 8.67 -6.98 8.34 -8 8 C-5.33333333 5.33333333 -2.66666667 2.66666667 0 0 Z " fill="#CE523A" transform="translate(782,443)"/>
<path d="M0 0 C0.66 0 1.32 0 2 0 C2 0.66 2 1.32 2 2 C2.66 2 3.32 2 4 2 C6 4 6 4 6.125 6.625 C6.08375 7.40875 6.0425 8.1925 6 9 C3.35247996 6.42215154 1.05567935 4.08351902 -1 1 C-0.67 0.67 -0.34 0.34 0 0 Z " fill="#C7513A" transform="translate(1275,437)"/>
<path d="M0 0 C0.66 0.66 1.32 1.32 2 2 C1.02433888 3.16959987 0.044375 4.33561177 -0.9375 5.5 C-1.48277344 6.1496875 -2.02804687 6.799375 -2.58984375 7.46875 C-3.05519531 7.9740625 -3.52054688 8.479375 -4 9 C-4.33 9 -4.66 9 -5 9 C-5 7.35 -5 5.7 -5 4 C-4.34 4 -3.68 4 -3 4 C-3 3.34 -3 2.68 -3 2 C-2.01 1.34 -1.02 0.68 0 0 Z " fill="#CF533A" transform="translate(883,95)"/>
<path d="M0 0 C0.66 0.66 1.32 1.32 2 2 C-0.64 4.31 -3.28 6.62 -6 9 C-6.33 8.34 -6.66 7.68 -7 7 C-6.34 7 -5.68 7 -5 7 C-4.67 6.01 -4.34 5.02 -4 4 C-3.67 3.34 -3.34 2.68 -3 2 C-2.01 2 -1.02 2 0 2 C0 1.34 0 0.68 0 0 Z " fill="#CA513B" transform="translate(396,574)"/>
<path d="M0 0 C0.66 0 1.32 0 2 0 C1.1875 1.9375 1.1875 1.9375 0 4 C-0.99 4.33 -1.98 4.66 -3 5 C-3 5.66 -3 6.32 -3 7 C-4.32 7.33 -5.64 7.66 -7 8 C-6.02133662 6.85373678 -5.04205413 5.70800212 -4.0625 4.5625 C-3.51722656 3.92441406 -2.97195312 3.28632812 -2.41015625 2.62890625 C-1.63204305 1.73008851 -0.84063472 0.84063472 0 0 Z " fill="#D84F3B" transform="translate(116,520)"/>
<path d="M0 0 C0.99 0.33 1.98 0.66 3 1 C1.88121617 2.17262904 0.75476949 3.33795138 -0.375 4.5 C-1.00148438 5.1496875 -1.62796875 5.799375 -2.2734375 6.46875 C-4 8 -4 8 -6 8 C-6 7.34 -6 6.68 -6 6 C-5.34 6 -4.68 6 -4 6 C-4 5.34 -4 4.68 -4 4 C-3.34 4 -2.68 4 -2 4 C-1.34 2.68 -0.68 1.36 0 0 Z " fill="#C5523E" transform="translate(486,487)"/>
<path d="M0 0 C0.99 0.33 1.98 0.66 3 1 C-0.96 4.465 -0.96 4.465 -5 8 C-5.33 7.34 -5.66 6.68 -6 6 C-5.34 6 -4.68 6 -4 6 C-4 5.34 -4 4.68 -4 4 C-3.34 4 -2.68 4 -2 4 C-2 3.01 -2 2.02 -2 1 C-1.34 0.67 -0.68 0.34 0 0 Z " fill="#D5503B" transform="translate(700,278)"/>
<path d="M0 0 C0.66 0 1.32 0 2 0 C2 0.66 2 1.32 2 2 C1.34 2 0.68 2 0 2 C0 2.66 0 3.32 0 4 C-0.66 4 -1.32 4 -2 4 C-2.33 4.99 -2.66 5.98 -3 7 C-5.0625 7.6875 -5.0625 7.6875 -7 8 C-6.02133662 6.85373678 -5.04205413 5.70800212 -4.0625 4.5625 C-3.51722656 3.92441406 -2.97195313 3.28632813 -2.41015625 2.62890625 C-1.63204305 1.73008851 -0.84063472 0.84063472 0 0 Z " fill="#D6503D" transform="translate(292,344)"/>
<path d="M0 0 C0.66 0.99 1.32 1.98 2 3 C0.35 3.66 -1.3 4.32 -3 5 C-3 5.66 -3 6.32 -3 7 C-4.32 6.67 -5.64 6.34 -7 6 C-4.69 4.02 -2.38 2.04 0 0 Z " fill="#D14D39" transform="translate(842,389)"/>
<path d="M0 0 C0.66 0.33 1.32 0.66 2 1 C2 1.66 2 2.32 2 3 C1.34 3 0.68 3 0 3 C0 3.99 0 4.98 0 6 C-1.65 6.33 -3.3 6.66 -5 7 C-3.35 4.69 -1.7 2.38 0 0 Z " fill="#D14F3D" transform="translate(41,598)"/>
<path d="M0 0 C1.32 0.66 2.64 1.32 4 2 C1.6875 4.0625 1.6875 4.0625 -1 6 C-1.99 5.67 -2.98 5.34 -4 5 C-3.34 5 -2.68 5 -2 5 C-2 4.01 -2 3.02 -2 2 C-1.34 2 -0.68 2 0 2 C0 1.34 0 0.68 0 0 Z " fill="#CD533B" transform="translate(1316,497)"/>
<path d="M0 0 C0.99 0.33 1.98 0.66 3 1 C1.35 2.98 -0.3 4.96 -2 7 C-2.66 6.34 -3.32 5.68 -4 5 C-3.34 5 -2.68 5 -2 5 C-2 4.01 -2 3.02 -2 2 C-1.34 2 -0.68 2 0 2 C0 1.34 0 0.68 0 0 Z " fill="#D0523D" transform="translate(594,381)"/>
<path d="M0 0 C0.66 0.66 1.32 1.32 2 2 C1.34 2 0.68 2 0 2 C0 2.99 0 3.98 0 5 C-0.99 5 -1.98 5 -3 5 C-3.33 5.66 -3.66 6.32 -4 7 C-4.66 6.34 -5.32 5.68 -6 5 C-4.02 3.35 -2.04 1.7 0 0 Z " fill="#D3513D" transform="translate(632,578)"/>
<path d="M0 0 C0.33 1.32 0.66 2.64 1 4 C0.34 4 -0.32 4 -1 4 C-1 4.66 -1 5.32 -1 6 C-2.32 5.67 -3.64 5.34 -5 5 C-3.35 3.35 -1.7 1.7 0 0 Z " fill="#C3533C" transform="translate(693,523)"/>
<path d="M0 0 C0.66 1.32 1.32 2.64 2 4 C1.34 4 0.68 4 0 4 C0 5.32 0 6.64 0 8 C-0.99 7.67 -1.98 7.34 -3 7 C-2.01 4.69 -1.02 2.38 0 0 Z " fill="#C35343" transform="translate(1182,330)"/>
</svg>